<svg xmlns="http://www.w3.org/2000/svg" width="90" height="90" viewBox="0 0 90 90" fill="none">
  <path fill-rule="evenodd" clip-rule="evenodd" d="M80.4195 60.61C74.3366 74.4561 60.5007 84.1304 44.402 84.1304C23.3378 84.1304 6.142 67.5675 5.12764 46.7547L2.59168 49.7794C2.071 50.4004 1.14547 50.4817 0.524452 49.961C-0.0965652 49.4404 -0.177902 48.5148 0.342781 47.8938L6.52056 40.5255L13.7524 47.2681C14.3452 47.8207 14.3777 48.7492 13.825 49.342C13.2724 49.9347 12.3438 49.9673 11.7511 49.4146L8.03259 45.9477C8.63434 65.5166 24.6871 81.1956 44.402 81.1956C59.2948 81.1956 72.1011 72.2482 77.7326 59.4296C78.0585 58.6876 78.9242 58.3504 79.6662 58.6763C80.4082 59.0023 80.7454 59.868 80.4195 60.61ZM48.1137 57.4344H40.5929V63.6082H36.3049V57.4344H31.6577V53.8872H36.3049V50.8115H31.6577V47.2868H36.3049V30.9205H48.3607C51.8629 30.9205 54.6392 31.8111 56.6897 33.5921C58.7401 35.3732 59.7654 37.7829 59.7654 40.8211C59.7654 44.0091 58.7776 46.4711 56.8019 48.2073C54.8413 49.9285 52.05 50.7966 48.428 50.8115H40.5929V53.8872H48.1137V57.4344ZM40.5929 47.2868H48.3607C50.6805 47.2868 52.4466 46.7405 53.6589 45.648C54.8712 44.5554 55.4774 42.9614 55.4774 40.866C55.4774 38.9652 54.8488 37.4311 53.5916 36.2637C52.3344 35.0813 50.6356 34.4827 48.4954 34.4677H40.5929V47.2868ZM8.386 29.8579C14.4688 16.0118 28.3048 6.33744 44.4035 6.33744C65.5494 6.33744 82.7968 23.029 83.6889 43.9554L86.9346 40.3992C87.4809 39.8006 88.409 39.7582 89.0076 40.3045C89.6062 40.8508 89.6486 41.779 89.1023 42.3776L82.3164 49.8128L74.3628 43.5304C73.7268 43.028 73.6185 42.1053 74.1208 41.4693C74.6232 40.8334 75.5459 40.725 76.1819 41.2274L80.7818 44.8608C80.3571 25.1335 64.2326 9.27222 44.4035 9.27222C29.5107 9.27222 16.7044 18.2196 11.0729 31.0383C10.747 31.7802 9.88123 32.1175 9.13925 31.7915C8.39728 31.4656 8.06004 30.5998 8.386 29.8579Z" fill="#FB6900"/>
</svg>