<svg width="48" height="58" viewBox="0 0 48 58" fill="none" xmlns="http://www.w3.org/2000/svg">
<path fill-rule="evenodd" clip-rule="evenodd" d="M16.7559 54.155L13.0519 47.8258C12.8129 47.4709 12.4545 47.2343 12.0363 47.2343H3.79175L14.8653 30L18.2707 30.5915L20.8994 35.3828C21.437 36.5067 22.7514 36.9799 23.9462 36.5067L26.4554 35.3828L27.6503 37.4531L16.7559 54.155Z" fill="white" stroke="#FB6900" stroke-width="2"/>
<path fill-rule="evenodd" clip-rule="evenodd" d="M35.6203 47.4541L31.7654 54.2258L18.2833 34.536C18.2212 34.3513 18.159 34.2282 18.0346 34.1051L16.6667 31.7042L17.102 31.5195L22.2005 33.9819C22.5735 34.1666 22.9466 34.2282 23.3197 34.2282C24.1901 34.2282 25.0606 33.7973 25.4958 32.997L28.2938 28.0105L32.0244 27.3333L45.2577 46.8384H36.6773C36.2421 46.8384 35.8069 47.0847 35.6203 47.4541Z" fill="white" stroke="#FB6900" stroke-width="2"/>
<path fill-rule="evenodd" clip-rule="evenodd" d="M24.1883 36.7615L18.6223 39.7331L15.5624 34.2536L9.25747 33.7737L9.6751 27.526L4.63306 23.7471L8.39568 18.7147L6.21731 12.8365L12.1303 10.6173L13.5072 4.5061L19.6933 5.80457L24.1883 1.40063L28.6834 5.80457L34.8695 4.5061L36.2464 10.6173L42.1594 12.8365L39.981 18.7147L43.7436 23.7471L38.7016 27.526L39.1192 33.7737L32.8143 34.2536L29.7544 39.7331L24.1883 36.7615Z" fill="white" stroke="#FB6900" stroke-width="2"/>
<path d="M24.6707 27.162C23.9867 27.162 23.3027 27.06 22.6187 26.856C21.9467 26.652 21.3347 26.334 20.7827 25.902C20.6387 25.806 20.5427 25.692 20.4947 25.56C20.4467 25.428 20.4407 25.296 20.4767 25.164C20.5127 25.032 20.5787 24.924 20.6747 24.84C20.7707 24.744 20.8847 24.69 21.0167 24.678C21.1607 24.666 21.3107 24.714 21.4667 24.822C21.9587 25.17 22.4687 25.428 22.9967 25.596C23.5247 25.764 24.0767 25.848 24.6527 25.848C25.2407 25.848 25.7447 25.74 26.1647 25.524C26.5967 25.296 26.9207 24.984 27.1367 24.588C27.3647 24.18 27.4787 23.706 27.4787 23.166C27.4787 22.338 27.2387 21.66 26.7587 21.132C26.2787 20.604 25.6187 20.34 24.7787 20.34C24.2627 20.34 23.7887 20.436 23.3567 20.628C22.9247 20.82 22.5287 21.126 22.1687 21.546C22.0847 21.642 21.9827 21.726 21.8627 21.798C21.7547 21.858 21.6287 21.888 21.4847 21.888C21.2807 21.888 21.1187 21.834 20.9987 21.726C20.8907 21.606 20.8367 21.45 20.8367 21.258V14.994C20.8367 14.766 20.8967 14.598 21.0167 14.49C21.1367 14.37 21.3047 14.31 21.5207 14.31H27.6407C27.8687 14.31 28.0367 14.364 28.1447 14.472C28.2647 14.58 28.3247 14.736 28.3247 14.94C28.3247 15.144 28.2647 15.3 28.1447 15.408C28.0367 15.516 27.8687 15.57 27.6407 15.57H22.2947V20.628H21.8987C22.2107 20.124 22.6427 19.74 23.1947 19.476C23.7467 19.2 24.3647 19.062 25.0487 19.062C25.8527 19.062 26.5427 19.23 27.1187 19.566C27.7067 19.902 28.1567 20.376 28.4687 20.988C28.7927 21.588 28.9547 22.29 28.9547 23.094C28.9547 23.886 28.7807 24.588 28.4327 25.2C28.0847 25.812 27.5927 26.292 26.9567 26.64C26.3207 26.988 25.5587 27.162 24.6707 27.162Z" fill="#FB6900"/>
</svg>
