<svg xmlns="http://www.w3.org/2000/svg" width="69" height="80" viewBox="0 0 69 80" fill="none">
  <g clip-path="url(#clip0_45_2819)">
    <path d="M65.9722 14.7987C55.3789 11.8961 44.7235 7.37657 35.1576 1.72875C34.6495 1.42875 34.0189 1.42875 33.511 1.72875C23.6692 7.53883 13.5895 11.8139 2.69549 14.7987C1.99173 14.9913 1.50391 15.631 1.50391 16.3608V32.9091C1.50391 49.9501 9.36541 61.2301 15.9606 67.6919C23.0607 74.649 31.3314 78.4964 34.3343 78.4964C37.3368 78.4964 45.6075 74.649 52.7077 67.6919C59.3027 61.2303 67.1637 49.9503 67.1637 32.9091V16.3606C67.1637 15.631 66.6759 14.9913 65.9722 14.7987Z" fill="white" stroke="#FB6900" stroke-width="3" stroke-linecap="round"/>
    <path d="M23.1582 41.25L33.4049 48.9233L48.8555 29.7744" stroke="#FB6900" stroke-width="3" stroke-linecap="round"/>
  </g>
  <defs>
    <clipPath id="clip0_45_2819">
      <rect width="68.7218" height="80" fill="white"/>
    </clipPath>
  </defs>
</svg>