<svg xmlns="http://www.w3.org/2000/svg" width="42" height="53" viewBox="0 0 42 53" fill="none">
  <path d="M0.0322266 26.8C0.0322266 18.4 1.80823 11.968 5.36023 7.50396C8.91223 2.99196 13.9762 0.735962 20.5522 0.735962C24.1042 0.735962 27.1762 1.35996 29.7682 2.60796C32.3602 3.85596 34.4962 5.63196 36.1762 7.93596C37.9042 10.192 39.1762 12.928 39.9922 16.144C40.8082 19.312 41.2162 22.864 41.2162 26.8C41.2162 35.2 39.4162 41.656 35.8162 46.168C32.2642 50.632 27.1762 52.864 20.5522 52.864C17.0482 52.864 14.0002 52.24 11.4082 50.992C8.86423 49.744 6.72823 47.992 5.00023 45.736C3.32023 43.432 2.07223 40.696 1.25623 37.528C0.440227 34.312 0.0322266 30.736 0.0322266 26.8ZM6.36823 26.8C6.36823 29.584 6.63223 32.224 7.16023 34.72C7.73623 37.216 8.60023 39.424 9.75223 41.344C10.9042 43.216 12.3682 44.728 14.1442 45.88C15.9682 46.984 18.1042 47.536 20.5522 47.536C25.0162 47.536 28.5202 45.856 31.0642 42.496C33.6082 39.088 34.8802 33.856 34.8802 26.8C34.8802 24.064 34.5922 21.448 34.0162 18.952C33.4882 16.408 32.6242 14.2 31.4242 12.328C30.2722 10.408 28.7842 8.89596 26.9602 7.79196C25.1842 6.63996 23.0482 6.06396 20.5522 6.06396C16.1362 6.06396 12.6562 7.76796 10.1122 11.176C7.61623 14.536 6.36823 19.744 6.36823 26.8Z" fill="#FE5B00"/>
</svg>